<svg version="1.1" xmlns="http://www.w3.org/2000/svg" viewBox="0 0 1099.0129393458365 679.5" width="3297.0388180375094" height="2038.5">
  <!-- svg-source:excalidraw -->
  
  <defs>
    <style>
      @font-face {
        font-family: "Virgil";
        src: url("https://excalidraw.com/Virgil.woff2");
      }
      @font-face {
        font-family: "Cascadia";
        src: url("https://excalidraw.com/Cascadia.woff2");
      }
    </style>
  </defs>
  <rect x="0" y="0" width="1099.0129393458365" height="679.5" fill="#ffffff"></rect><g stroke-linecap="round" transform="translate(81.54699318073676 108) rotate(0 99 16.5)"><path d="M0 0 C0 0, 0 0, 0 0 M0 0 C0 0, 0 0, 0 0 M-0.05 6.3 C0.75 5.66, 1.5 3.64, 5.41 0.58 M0.08 6.01 C1.2 4.84, 2.57 3.57, 4.73 0.6 M-1.37 10.66 C4.02 7.36, 6.83 5.93, 11.52 1.56 M0.02 12.33 C2.59 9.08, 4.72 6.45, 9.97 0.37 M-0.91 20.14 C3.51 13.52, 9.95 6.32, 15.86 1.95 M-1.05 18.81 C5.12 12.35, 9.42 7.76, 16.56 0.66 M2.13 23.72 C3.78 18.99, 11.53 12.25, 22.42 -1.3 M0.75 24.36 C5.12 17.6, 10.3 11.63, 22.07 -0.32 M-0.63 30.99 C10.22 21.22, 18.34 9.65, 24.68 0.28 M-0.5 31.01 C9.33 20.62, 16 11.36, 25.8 0.17 M0.14 33.17 C13.01 22.45, 24.79 7.3, 30.5 0 M1.19 34.47 C7.6 26.87, 14.25 20.16, 32 -0.69 M6.55 32.93 C12.57 24.84, 21.28 18.21, 35.06 1.35 M6.54 33.43 C18.3 21.89, 28.39 11.98, 36.9 -0.15 M13.61 34.18 C18.46 25.87, 27.1 16.04, 42.25 0.87 M11.58 35.48 C23.22 22.12, 32.42 9.94, 43.43 0.1 M17.82 32.61 C24.48 25.67, 29.75 18.46, 49.45 1.2 M17.56 34.73 C26.89 25.3, 35.26 15.28, 48.47 1.02 M22.67 36.49 C33.85 21.71, 42.53 9.65, 52.84 -2.1 M22.93 34.71 C32.5 24.23, 41.06 13.5, 53.52 0.2 M27.3 34.27 C36.53 27.88, 42.77 18.13, 56.23 0.47 M27.34 35.05 C36.54 24.07, 46.01 13.68, 57.95 0.94 M34.58 35.85 C44.22 22.77, 53.14 13.27, 64.34 -0.74 M34.21 34.85 C46.38 21.36, 58.03 6.75, 63.7 0.23 M37.24 35.72 C46.45 25.65, 54.16 15.2, 67.67 -1.6 M38.18 34.92 C48.99 23.58, 57.7 11.78, 68.54 -0.18 M44.5 34.63 C51.55 26.87, 61.9 15.13, 75.74 -1.26 M44.21 33.56 C56.71 22.12, 66.35 8.46, 74.72 0.25 M48.86 34.59 C57.4 25.47, 62.02 17.17, 77.97 -1.2 M49.74 34.61 C60.08 23.67, 69.87 9.99, 80.26 -0.16 M53.47 35.76 C64.91 23.19, 77.76 7.32, 84.93 1.7 M54.49 34.46 C63.46 24.57, 70.53 16.14, 85.61 -1.22 M58.9 35.4 C72.78 20.96, 83.97 6.11, 89.2 0.09 M60.62 34.08 C67.36 27.01, 74.4 17.17, 90.91 0.12 M66.47 32.8 C74.22 22.49, 84.34 16.29, 94.68 -0.89 M66.44 34.09 C74.41 24.8, 83.33 16.04, 94.7 -0.19 M69.04 36.23 C82.79 21.8, 92.71 10.69, 101.38 1.29 M70.7 34.74 C81.93 21.17, 92.69 9.1, 101.12 -0.26 M74.36 35.87 C89.2 22.01, 98.08 6.66, 106.72 1.53 M76.23 34.97 C86.57 22.8, 96.03 10.4, 106.64 -0.24 M79.85 34.77 C88.78 26.39, 93.58 20.66, 110.39 0 M80.19 34.45 C88.76 27.08, 96.72 18.09, 111.28 0.72 M87.93 33.72 C94.25 27.1, 101.65 19.09, 114.98 1.86 M85.81 34.58 C95.89 22.2, 106.99 11.01, 116.68 1.26 M92.81 34.28 C99.72 23.03, 107.95 14.4, 122.06 -1.59 M92.57 34.54 C97.76 28.65, 103.4 21.63, 122.59 -0.95 M95.85 35.65 C105.33 25.64, 110.86 19.83, 126.29 2.34 M97.95 34.32 C105.71 24.43, 116 14.84, 126.36 1.14 M104.32 33.65 C110.82 25.86, 118.71 19.23, 134.09 1.33 M101.64 34.77 C112.71 23.54, 122.34 11.24, 132.04 -0.33 M106.73 33.6 C113.47 26.38, 119.81 18.55, 138.41 1.06 M107.22 34.58 C114.37 26.72, 121.56 19.14, 136.56 -0.06 M111.66 33.33 C121.67 23.35, 131.64 16.6, 142.1 -1.87 M112.46 34.38 C124.92 20.67, 136.46 7.54, 143.45 -0.55 M119.05 36.07 C130.84 20.23, 142.84 7.34, 148.67 -1.04 M118.97 33.68 C131.06 20.51, 142.45 6.58, 149.08 -0.09 M123.03 33.39 C137.5 19.37, 149.47 8.54, 153.63 0.79 M124.44 35.03 C130.91 25.59, 138.8 18.25, 154.39 0.26 M131.22 34.16 C135.55 28.22, 142.38 20.81, 159.3 -1.43 M128.36 34.9 C138.41 23.78, 147.6 13.18, 159.05 0.73 M135.54 35.48 C143.74 22.72, 155.52 6.66, 166.11 -2.1 M134.24 33.86 C140.83 27.95, 147.94 19.22, 165.25 -0.13 M139.54 35.58 C148.12 22.67, 159.64 11.48, 167.43 2 M139.32 33.47 C151.32 21.65, 163.18 9.23, 169.87 0.56 M145.2 32.83 C154.28 24.1, 165 11.76, 176.87 0.61 M144.83 34.45 C156.05 22.12, 168.5 7.34, 174.22 -0.96 M151.59 35.37 C156.78 28.17, 164.12 20.74, 179.11 0.97 M148.97 34.34 C160.97 22.08, 172.5 9.59, 180.25 0.99 M156.94 36.3 C161.29 28.43, 169.79 16.56, 185.18 0.7 M156.49 33.85 C164.03 25.69, 170.99 15.5, 186.28 0.47 M158.78 34.91 C168.57 25.02, 178.2 11.51, 191.29 -1.21 M161.15 34.13 C170.34 24.23, 181.18 12.65, 191.21 0.07 M166.56 36.31 C176.56 23.05, 182.76 14.45, 198.17 0.5 M165.79 33.53 C175.65 23.28, 184.31 12.31, 196.22 -0.18 M170.49 36.43 C179.13 25.34, 185 17.86, 200.51 1.86 M171.55 34.68 C182.49 23.2, 191.57 10.05, 199.72 0.83 M174.82 32.9 C186.68 23.23, 193.13 14.66, 201.69 7.29 M176.59 34.45 C182.73 26.9, 188.2 21.58, 200.38 8.99 M182.66 34.01 C185.77 29.36, 191.61 20.76, 199.66 11.75 M181.31 35.05 C186.63 28.84, 190.23 23.67, 200.52 14.27 M189.24 33.71 C191.43 30.04, 196.18 23.15, 200.6 18.15 M187.07 34.02 C192.29 29.32, 196.02 24.78, 200.08 20.02 M191.7 35.61 C195.46 31, 197.47 27.24, 199.25 25.5 M192.93 35.01 C194.82 32.45, 196.73 28.88, 199.84 26.2" stroke="#82c91e" stroke-width="0.5" fill="none"></path><path d="M-1.91 -1.33 C57.72 -0.48, 118.63 -0.79, 196.42 -0.96 M0.36 0.01 C70.17 -1.63, 142.77 -1.11, 198.15 -0.86 M199.09 -1.68 C196.84 6.35, 196.02 12.61, 198.92 34.49 M197.91 0.28 C198.34 6.55, 197.21 13.69, 198.99 32.94 M196.9 31.88 C138.45 31.88, 78.94 32.68, 0.74 31.14 M197.2 32.15 C121.32 32.18, 43.61 32.1, -0.06 32.78 M1.95 34.74 C0.8 24.49, -1.64 17.01, 0.19 -0.06 M0.96 33.25 C-0.85 23.84, 0.01 12.53, 0.79 0.3" stroke="#000000" stroke-width="1" fill="none"></path></g><g transform="translate(86.54699318073676 113) rotate(0 94 11.5)"><text x="94" y="17" font-family="Virgil, Segoe UI Emoji" font-size="20px" fill="#000000" text-anchor="middle" style="white-space: pre;" direction="ltr">Document Request</text></g><g stroke-linecap="round" transform="translate(283.04699318073676 150) rotate(0 169.5 16.5)"><path d="M0 0 C0 0, 0 0, 0 0 M0 0 C0 0, 0 0, 0 0 M0.54 6.39 C1.44 4.01, 4.07 2, 4.5 0.53 M0.06 6.17 C1.92 3.96, 4.12 1.57, 5.24 0.27 M1.24 12.71 C4.66 6.89, 7.05 2.73, 10.86 1.04 M-0.09 11.44 C2.5 9.35, 4.75 5.9, 10.13 -0.11 M0.63 16.84 C2.99 14.38, 5.36 10.91, 15.19 0.2 M-0.49 18.24 C5.6 13.06, 10.19 5.34, 15.76 -0.33 M-1.52 25.96 C9.29 15.29, 15.36 4.87, 21.69 -0.5 M-0.19 24.93 C5.61 17.66, 12.47 11.05, 21.58 -0.46 M-1.3 32.42 C11.31 21.37, 19.91 7.28, 28.21 0.38 M-0.36 31.43 C8.79 19.63, 18.99 7.59, 27.06 -0.41 M2.63 33.45 C11.55 22.6, 26.3 8.78, 31.35 -0.94 M2.09 33.64 C10.99 23.59, 22.54 11.32, 31.94 0.45 M5.69 34.64 C17.79 21.56, 25.94 11.95, 36.28 1 M7.85 35.02 C14.32 25.04, 22 18.22, 35.89 0.8 M10.4 32.83 C19.34 24.99, 25.65 17.91, 42.89 0.86 M12.37 34.84 C24.18 21.78, 35.84 8.15, 41.79 -0.22 M19.78 35.79 C26.3 22.16, 35.93 11.18, 47.46 0.64 M18.34 34.29 C28.54 22.4, 39.18 8.73, 47.54 0.49 M23.78 36.13 C35.23 22.5, 45.37 8.41, 52.89 1.68 M22.21 33.83 C35.78 21.56, 47.51 8.08, 53.3 0.48 M28.76 36.05 C36.7 21.35, 46.18 10.55, 58.37 -1.23 M28.78 34.29 C39.13 20.46, 52.26 8.93, 57.29 1.16 M34.53 33.69 C43.41 24.95, 52.66 13.94, 65.54 0.2 M34.3 34.68 C43.26 23.48, 51.29 13.41, 63.07 0.32 M37.24 35.46 C45.03 26.69, 54.17 17.18, 68.24 1.79 M38.53 34.84 C48.47 21.91, 60.45 10.46, 69.34 -0.42 M45 34.79 C51.51 25.49, 56.64 17.13, 74.62 -0.99 M44.31 33.72 C51.27 27.46, 57.53 19.8, 75.19 -1.14 M49.47 36.25 C60.63 20.88, 71.29 10.41, 80.9 0.99 M48.44 35.82 C56.56 28.11, 61.21 19.39, 79.88 -0.15 M54.14 33.59 C62.53 28.19, 67.14 19.37, 85.5 -1.39 M55.85 34.62 C63.31 25.52, 71.84 14.48, 84.16 0.46 M57.95 33.79 C67.22 26.5, 71.8 20.69, 90.77 -1.44 M60.47 35.13 C68.11 26.75, 75.48 17.72, 90.02 0.34 M63.5 35.16 C76.15 24.22, 85.01 10.6, 97.14 -0.6 M65.46 35.3 C76.09 23.74, 84.34 12.64, 95.97 -0.73 M68.76 35.36 C78.75 25.85, 88.2 18.03, 100.85 1.62 M70.03 34.51 C78.51 27.3, 84.61 19.77, 100.84 0.73 M75.21 33.48 C87.95 21.23, 100.34 9.05, 108.1 -0.31 M75.68 35.02 C83.11 25.53, 90.39 18.24, 107.04 0.25 M79.58 34.13 C89.65 23.25, 100.22 14.52, 112.75 0.17 M80.99 34.47 C92.21 22.64, 102.03 12.64, 110.37 0.99 M86 33.45 C92.81 27.99, 100.74 19.7, 117.87 -1.54 M85.95 35.31 C93.61 25.09, 100.32 17.3, 116.6 0.89 M93.7 35.21 C101.81 27.12, 106.96 14.01, 120.67 1.14 M92.68 35.31 C96.95 27.65, 104.21 19.93, 122.59 0.4 M97.2 32.85 C103.45 26.05, 113.52 15.89, 127.52 2.31 M97.72 34.99 C108.83 21.03, 121.28 8.18, 126.29 1.23 M101.98 33.58 C110.47 23.55, 119.71 14.25, 133.41 -1.66 M102.85 34.14 C110.99 26.53, 117.19 16.03, 132.44 0.53 M108.71 32.39 C118.1 21.48, 127.32 10.2, 137.72 0.02 M107.33 35.21 C115.56 27.3, 121.1 17.55, 137.26 -0.62 M112.9 36.15 C122.21 25.04, 130.97 14.02, 144.35 -1.48 M112.73 33.87 C125.78 20.84, 136 7.26, 142.8 0.24 M117.07 33.66 C128.6 22.68, 136.09 14.12, 149.41 1.53 M119.14 34.39 C131.21 20.23, 142.31 7.81, 147.72 -0.55 M122.49 35.73 C130.23 28.26, 138.7 18.4, 153.46 -0.7 M124.01 34.19 C133.83 23.02, 141.59 12.94, 153.53 0.68 M129.36 33.19 C137.95 24.29, 147.02 13.27, 157.12 0.69 M128.4 33.25 C140.12 20.55, 152.33 6.63, 159.39 -0.6 M132.43 33.03 C141.91 24.07, 150.94 16.43, 165.33 -0.77 M133.8 34.61 C143.74 23.02, 154.99 10.8, 164.41 0.33 M141.28 32.4 C151.95 22.39, 163.6 10.35, 170.97 1.23 M140.37 33.82 C145.39 26.8, 151.42 19.34, 170.4 -0.05 M143.95 34.69 C155.83 21.23, 163.79 12.14, 175.11 -0.24 M145.71 35.42 C153.1 25.51, 159.01 17.38, 174.19 -0.06 M150.49 36.35 C160.06 24.13, 169.67 11.12, 178.67 -1.19 M150.55 35.16 C158.54 24.05, 167.68 12.12, 180.36 -0.36 M155.9 35.21 C163.32 23.51, 171.85 15.18, 186.58 -0.75 M154.76 34.71 C163.55 26.44, 170.48 18.29, 185.57 -0.45 M161.16 36.78 C171.63 19.67, 183.46 8.36, 191.52 -1.01 M160.42 35.39 C167.76 25.22, 176.05 17.22, 191.32 -0.22 M166.7 35.04 C171.08 27.24, 178.09 21.03, 198.08 -1.04 M166.45 35.37 C175.7 22.01, 186.08 11.54, 196.22 -0.48 M170.13 34.57 C178.66 25.53, 188.98 11.65, 202.44 -0.77 M170.4 35.17 C178.2 25.9, 186.22 16.37, 200.78 -0.49 M176.39 34.52 C186.5 24.75, 191.99 15.81, 208.57 1.05 M177.71 34.08 C188.21 20.28, 200.37 7.74, 207.73 -0.51 M183.47 34.77 C192.47 23.2, 200.67 14.82, 211.92 -1.09 M181.53 35.7 C188.27 26.85, 195.34 20.03, 212.71 0.73 M188.58 35.89 C196.9 26.33, 201.78 13.74, 219.59 -1.4 M187.95 34.33 C196.12 24.66, 203.21 15.97, 216.66 -0.59 M193.84 33.32 C204.92 20.26, 213.91 10.15, 222.04 1.3 M191.82 34.5 C202.35 22.9, 214 11.74, 222.52 -0.83 M196.49 33.32 C206.41 25.14, 212.36 19.55, 229.27 1.6 M198.02 33.4 C207.85 24.4, 215.77 13.05, 227.54 0.52 M202.52 35.09 C211.26 26.56, 220.73 16.05, 234.49 -0.41 M203.22 34.37 C210.93 25.6, 219.13 14.07, 234.07 -0.65 M208.92 34.84 C219.61 24.29, 227.79 12.4, 237.68 -0.33 M209.21 33.36 C215.94 27.06, 222.03 18.31, 239.17 1.11 M213.35 35.84 C224.12 22.27, 235.05 9.82, 244.55 -1.13 M214.63 34.41 C220.41 28.17, 225.11 21.4, 244.68 -0.44 M220.29 32.44 C230.95 21.33, 242.4 6.8, 247.47 1.12 M220.29 34.08 C227.52 26.15, 232.93 18.35, 248.28 0.5 M222.78 36.23 C234.1 24.82, 239.96 14.73, 255.08 -1.87 M224.92 35 C234.08 23.18, 241.59 12.89, 254.12 0.92 M228.58 35.99 C238.48 25.18, 246.5 16.29, 257.9 -0.61 M230.46 34.24 C238.17 22.57, 248.27 11.88, 258.59 0.57 M233.85 35.84 C246.54 20.86, 255.78 12.88, 266.56 0.28 M235.88 34.86 C244.99 23.57, 253.28 12.92, 265.62 0.34 M241.38 35.25 C251.54 19.7, 261.51 7.36, 269.47 0.09 M240.39 34.3 C248.47 23.02, 258.98 13.75, 270.43 -0.23 M246.21 35.15 C254.07 23.96, 263.39 11.06, 275.03 -1.88 M245.29 33.95 C258.46 20.31, 269.62 7.48, 274.86 -0.49 M249.88 33.92 C264.43 18.98, 272.93 8.24, 281.29 -0.27 M251.19 33.53 C257.26 25.86, 265.04 16.88, 281.08 0.8 M258.07 33.54 C266.77 21.55, 279.54 9.44, 286.16 0.38 M255.85 34.59 C262.24 25.58, 269.82 18.59, 286.96 -0.07 M262.19 36.34 C268.89 28.63, 271.65 22.32, 293.07 -0.27 M260.77 35.73 C268.2 26.66, 277.31 16.97, 291.77 -0.3 M268.28 35.32 C273.99 24.47, 283.53 14.38, 297.18 1.67 M266.25 34.33 C277.13 22.9, 288.65 9.32, 297.51 -0.11 M272.01 34.5 C277.37 28.7, 287.49 18.65, 303.08 0.41 M271.47 35.26 C280.2 25.18, 286.33 16.54, 302.68 0.77 M278.23 35.68 C287.14 24.9, 297.21 10.18, 306.94 0.52 M278.11 35.08 C290.3 21.45, 302.47 7.11, 307.56 -0.5 M280.63 34.55 C287.6 28.41, 296.02 21.98, 314.22 -0.99 M283.11 34.53 C293.4 21.13, 306.29 8.32, 311.96 -0.36 M289.95 34.72 C296.96 22.93, 306.99 10.8, 317.87 1.36 M289 33.99 C295.75 26.23, 302.96 17.71, 318.58 -0.38 M293.62 35.81 C301.92 23.29, 310.18 16.94, 323.98 -0.34 M292.62 33.98 C298.66 28.43, 306.71 19.43, 322.7 0.22 M300.03 35.46 C310.24 18.94, 321.75 5.99, 329.99 0.55 M299.44 34.56 C308.82 22.46, 318.55 11.28, 329.52 -1.04 M302.13 33.48 C309.92 27.99, 317.87 16.89, 334.41 -0.6 M304.36 33.87 C315.09 21.38, 327.43 8.45, 333.93 -0.29 M309.68 33.82 C314.93 24.88, 322.69 16.08, 338.28 1.06 M309.94 33.55 C316.11 25.29, 323.09 17.26, 339.13 -0.25 M312.91 36.7 C324.18 23.63, 329.18 12.98, 340.94 4.23 M315.19 35.24 C321.68 26.94, 329.25 17.27, 338.42 5.65 M318.69 32.62 C325.77 30.5, 328.22 22.11, 338.75 11.64 M319.91 34.02 C326.48 25.72, 334.42 16.46, 339.06 11.83 M326.28 34.49 C327.71 31.44, 333.07 25.87, 340.84 18.99 M325.39 34.93 C329.62 30.34, 333.31 25.67, 340.11 18.86 M331.15 35.14 C331.93 32.04, 334.18 29.87, 338.44 24.82 M330.69 34.33 C333.96 31.46, 336.79 27.63, 338.7 24.15 M335.23 34.44 C337.19 33.59, 337.84 31.89, 338.78 30.71 M335.6 34.64 C336.65 33.08, 337.88 31.85, 338.77 30.95" stroke="#228be6" stroke-width="0.5" fill="none"></path><path d="M0.83 0.93 C111.24 -0.21, 220.86 -0.85, 339.72 -0.83 M-0.21 0.55 C107.16 -0.83, 212.42 -0.55, 339.63 0.33 M340.87 0.65 C339.9 7.93, 339.03 18.45, 340.21 32.72 M339.1 -0.7 C338.96 9.47, 338.04 20.04, 339.42 32.74 M338.99 32.25 C259.33 30.74, 178.34 31.61, 0.41 33.7 M339.47 32.63 C206.83 32.93, 74.01 32.77, 0.18 33.35 M1.48 33.74 C0.84 23.27, -2.11 11.39, -1.25 -1.01 M0.88 32.72 C-0.02 22.24, 0.62 9.56, -0.13 -0.98" stroke="#000000" stroke-width="1" fill="none"></path></g><g transform="translate(288.04699318073676 155) rotate(0 164.5 11.5)"><text x="164.5" y="17" font-family="Virgil, Segoe UI Emoji" font-size="20px" fill="#000000" text-anchor="middle" style="white-space: pre;" direction="ltr">JavaScript Bundle</text></g><g stroke-linecap="round" transform="translate(74.04699318073676 440.75) rotate(0 198.5 35.5)"><path d="M0 0 C0 0, 0 0, 0 0 M0 0 C0 0, 0 0, 0 0 M0.43 5.62 C1.34 4.41, 4.45 1.53, 4.22 0.09 M-0.47 6.79 C1.41 4.53, 3.17 2.75, 4.6 0.73 M-1.29 13.04 C1.85 9.34, 6.06 4.73, 10.57 -0.49 M0.37 11.26 C3.78 8.07, 8.14 3, 9.84 -0.27 M0.28 19.48 C4.08 12.04, 9.07 5.67, 17.38 -0.99 M-0.59 18 C3.48 13.24, 8 8.7, 15.43 -0.05 M-0.67 22.37 C4.38 18.75, 9.3 15.86, 20.31 -0.43 M1.07 24.3 C5.61 18.95, 10.03 12.12, 20.44 0.65 M0.27 31.14 C6.26 23.67, 14.65 14.77, 25.39 0.41 M-0.84 30.3 C9.89 18.88, 20.95 7.53, 25.77 0.79 M-0.8 38.54 C9.03 26.05, 21.45 14.65, 33.19 -1.91 M-0.68 36.32 C6.6 29.87, 12.75 22.33, 31.28 -0.08 M1.65 43.98 C11.87 32.82, 18.65 21.58, 35.67 -0.66 M0.59 42.97 C13.87 25.38, 28.41 9.3, 36.85 1.16 M-1.3 50.86 C14.67 29.1, 31.26 13.46, 41.47 -0.03 M-0.11 48.41 C16 29.54, 31.59 11.16, 43.02 -0.8 M-0.42 54.12 C13.89 39.36, 25.83 25.76, 48.69 1.84 M0.11 55.15 C13.95 38.88, 27.35 22.24, 48.3 -0.62 M0.52 61.26 C11.53 48.56, 22.61 36.69, 54.3 -0.22 M-0.69 61.08 C17.3 42.39, 32.75 23.08, 53.81 -0.34 M1.42 68.01 C13.38 48.44, 31.84 29.58, 58.82 -1.46 M-1.23 68.21 C21.15 43.28, 43.35 17.86, 58.54 -0.29 M2.57 70.74 C21.48 46.96, 44.47 19.37, 63.76 -0.3 M0.2 71.26 C16.79 56.18, 30.3 39.18, 64.08 -1.1 M6.02 69.92 C27.73 44, 54.02 20.35, 68.34 -1.33 M6.46 72.14 C22.31 54.59, 38.66 36.31, 67.79 -0.64 M11.17 73.1 C23.75 54.36, 41 40.07, 74.84 -0.47 M11.54 73.06 C35.8 46.63, 57.88 19.02, 73.57 -0.01 M17.93 70.52 C29.55 55.89, 44.45 43.31, 77.42 0.06 M17.18 71.21 C41 44.17, 66.32 15.21, 79.06 -0.49 M23.56 72.6 C40.34 52.46, 57.93 31.37, 83.42 -1.38 M22.07 72.39 C38.17 54.83, 52.33 36.87, 84.33 0.46 M27.99 72.83 C46.46 49.58, 68.3 24.96, 90.16 -0.88 M28.61 70.93 C40.3 57.17, 53.23 43.35, 89.15 0.27 M34.68 72.78 C52.95 50.33, 69.07 32.48, 94.29 -2.07 M32.14 72.82 C55.92 45.31, 78.74 17.38, 95.68 -0.72 M39.87 72.94 C51.5 56.36, 66.49 36.96, 100.56 0.87 M37.64 71.69 C59.75 46.59, 81.32 21.34, 99.69 -0.26 M41.43 73.78 C62.14 50.91, 82.84 29.55, 107.16 -1.96 M42.94 71.86 C67.18 44.06, 91.86 15.68, 107.27 -0.13 M48.14 70.54 C71.57 49.19, 91.7 22.6, 110.52 0.9 M49.47 72.37 C62.48 55.78, 74.45 41.51, 112.07 0.92 M52.56 70.32 C67.35 55.25, 82.7 36.39, 117.97 1.84 M53.43 71.99 C71.61 51.43, 89.14 32.38, 115.35 -0.11 M60.28 70.91 C71.14 57.31, 85.98 41.22, 123.84 -0.57 M60.58 71.28 C74.03 54.82, 90.5 37.56, 122.48 0.82 M62.77 73.75 C82.2 48.5, 102.43 27.52, 127.55 1.58 M65.38 71.61 C87.57 46.22, 110.37 18.06, 126.46 1.14 M70.68 70.9 C88.86 52.85, 107.42 29.03, 132.25 -0.76 M69.76 71.19 C84.6 54.9, 99.75 36.68, 132.94 -0.64 M74.65 73.96 C99.2 46.14, 122.03 20.08, 135.66 1.34 M74.33 72.11 C97.25 45.79, 119.18 19.55, 138.48 1.17 M82.64 72.99 C96.62 56.23, 111.21 38.3, 141.37 -0.29 M81.1 72.34 C94.38 55.05, 110.23 37.85, 142.24 0.43 M84.7 73.48 C97.41 55.48, 110.86 40.8, 149.63 0.05 M86.66 72.8 C101.11 55.65, 114.66 37.93, 148.22 1.23 M90.34 71.24 C113.46 47.87, 133.08 21.61, 152.71 -1.17 M90.97 71.39 C104.51 56.36, 118.02 39.51, 152.96 -1.12 M97.31 73.4 C113.7 52.47, 130.34 36.97, 157.68 -1.74 M96.52 71.98 C108.62 58.9, 121.55 43.33, 159.78 0 M100.25 74.05 C120 49.13, 138.84 29.7, 165.73 -0.82 M102.4 73.23 C114.78 57.5, 127.31 41.77, 164.49 -0.51 M106.8 71.43 C123.05 56.14, 137.22 35.94, 170.96 0.06 M106.85 71.87 C127.21 48.05, 148.56 24.3, 169.6 0.63 M111.68 71.16 C129.71 50.42, 151.46 25.66, 175.75 -2.09 M112.68 72.95 C135.54 44.88, 160.11 17.92, 176.03 0.03 M119.38 71.86 C139.22 45.78, 160.82 23.58, 181.51 -0.81 M118.4 71.65 C138.49 49.16, 157.83 25.46, 179.37 -0.27 M122.91 72.16 C143.39 52.46, 159.14 30.99, 184.02 0.79 M122.41 71.32 C144.43 46.4, 167.71 21.95, 185.55 0.18 M127.17 71.58 C145.1 52.14, 161.27 31.89, 192.27 0.95 M128.72 72.47 C148.56 48.2, 171.37 23.33, 191.1 0.34 M131.74 73.49 C150.03 50.95, 169.99 29.68, 195.71 0.18 M133.17 72.84 C152.34 51.95, 169.33 31.97, 196.83 0.61 M138.2 70.05 C163.14 43.89, 184.48 18.69, 203.11 0.24 M139.15 72.42 C162.44 44.64, 183.86 20.09, 202.09 0.97 M144.92 73.17 C163.76 47.99, 187.05 22.59, 205.86 1.02 M143.82 71.46 C166.78 44.37, 192.17 17.29, 206.45 -0.08 M150.41 71.37 C168.13 52.77, 181.97 29.89, 212.78 -0.45 M149.83 71.54 C164.84 54.33, 181.65 35.33, 211.94 0.58 M156.09 72.82 C171.3 50.17, 193.34 28.78, 217.43 -1.14 M155.53 71.57 C169.31 56.04, 182.79 41.67, 216.77 -0.33 M161.63 70.19 C179.87 51.18, 200.49 27.94, 220.95 -1.02 M160.7 70.84 C177.37 51.86, 197.1 30.52, 223.55 -0.42 M163.77 71.66 C179.71 52.22, 198.52 35.42, 227.32 -2.17 M164.75 73.02 C187.32 45.1, 209.84 18.4, 228.98 -0.62 M171.62 69.78 C190.97 52.23, 205.29 30.7, 234.2 -1.8 M170.48 71.25 C185.22 55.15, 199.22 40.14, 234.11 0.84 M177.44 72.49 C198.4 46.92, 218.44 19.23, 239.62 1.41 M176.24 72.12 C199.15 44.48, 224.8 17.77, 237.38 0.26 M180.01 72 C199.24 54.41, 212.12 33.97, 244.02 -1.5 M181.7 70.7 C193.63 58.32, 206.2 42.06, 244.11 0.68 M187.43 71.73 C206.58 48.56, 227.95 21.08, 250.35 -0.57 M186.05 72.62 C203.44 53.63, 218.82 34.87, 249.04 1.24 M192.39 71.28 C203.4 57.46, 216.3 44.8, 252.78 0.75 M191.7 71.03 C210.37 51.2, 226.73 30.82, 254.34 -0.13 M199.02 73.35 C211.51 55.46, 221.91 39.36, 261.43 -1.45 M196.53 72.72 C217.95 48.55, 237.35 24.98, 258.87 0.43 M202.2 72.67 C225.65 45.27, 245.89 22.96, 263.78 -0.6 M203.59 71.06 C222.71 48.8, 240.75 26.34, 264.88 0.63 M206.37 70.96 C228.92 46.44, 250.5 18.53, 269.37 1.29 M207.32 72.1 C230.19 44.69, 253.8 17.9, 269.23 1.16 M212.82 69.82 C229.13 53.99, 239.15 41.51, 275.21 0.53 M213.29 71.55 C227.48 55.24, 240.22 40.32, 276.12 -0.36 M218.55 73.73 C232.54 55.34, 251.53 37.06, 282.56 0.75 M218.38 72.86 C238.23 49.46, 257.66 26.39, 280.27 -0.28 M222.88 71.7 C248.47 45.5, 273.28 14.13, 286.2 -0.23 M223.87 72.97 C246.57 46.32, 269.49 21.02, 285.72 -0.96 M229.55 72.45 C252.4 45.4, 275.18 21.6, 291.31 -1.38 M228.93 72.58 C249.8 47.9, 269.88 24.82, 290.95 0.33 M234.86 73.63 C256.95 44.27, 283.58 15.76, 298.74 0.38 M233.14 71.48 C256.25 47.34, 277.18 21.04, 297.67 -0.6 M240.26 73.48 C260.72 46.07, 287.91 17.62, 301.84 -0.79 M240.52 71.27 C261.44 47.94, 280.85 24.16, 302 0.19 M245.2 71.78 C263.02 49.89, 283.58 27.38, 307.76 -0.8 M244.77 72.46 C258.93 57.57, 271.83 41.39, 307.23 -1.23 M248.46 72.78 C265.85 56.04, 278.52 35.98, 314.27 -0.61 M249.99 72.42 C267.4 52.96, 284.01 33.12, 312.98 0.42 M256.91 74.16 C273.98 53.65, 288.03 36, 319.08 0.65 M255.87 72.49 C273.75 50.23, 291.68 29.27, 317.97 -0.37 M262.86 69.92 C281.13 50.16, 301.69 26.27, 324.63 -1.35 M260.45 71.95 C278.85 53.56, 295.24 34.67, 323.22 -0.87 M264.88 71.38 C282.65 49.05, 302.14 29.62, 327.43 -1.23 M265.32 73.1 C282.03 51.65, 299.52 32.32, 328.77 -0.08 M273.07 70.05 C282.55 59.24, 298.63 41.89, 334.85 1.06 M272.34 71.24 C287.06 52.4, 305.42 32.48, 332.87 0.35 M277.92 70.63 C293.06 56.14, 308.23 35.44, 338.45 -0.83 M276.84 71.76 C300.81 44.19, 327.6 15.81, 338.77 0.06 M283.59 69.91 C303.18 49.32, 325.46 25.39, 342.78 1.29 M282.38 72.13 C306.21 44.08, 329.86 17.18, 343.86 -0.91 M288.74 73.71 C309.17 45.95, 330.45 21.71, 350.03 1.83 M287.93 72.93 C301.9 54.47, 319.16 36.81, 349.79 0.63 M291.84 71.84 C314.73 47.64, 332.81 24.33, 356.15 -1.4 M292.6 71.9 C314.7 47.36, 334.5 22.56, 354.93 0.3 M295.98 71.01 C310.83 58.88, 322.37 42.78, 360.93 0.04 M296.87 72.97 C320.22 47.47, 341.9 20.85, 359.89 0.44 M302.16 69.78 C323.35 52.11, 338.63 27.52, 366.63 -1.16 M303.31 72.29 C316.85 55.1, 331.23 39.2, 366.59 -0.13 M310.15 71.5 C323.74 56.71, 337.68 40.34, 368.84 -1.04 M307.77 71.24 C333.31 44.87, 357.61 16.33, 370.46 -0.02 M315.76 71.25 C333.41 47.23, 356.86 24.87, 375.77 0.47 M314.12 72.5 C337.48 44.06, 362.22 15.52, 376.18 -0.32 M319.69 72.76 C337.74 47.23, 360.09 24.64, 383.04 -1.41 M319.5 71.04 C340.75 46.3, 363.29 19.66, 381.86 -0.51 M324.79 71.37 C338.99 54.75, 350.14 43.47, 385.03 0.53 M324.96 72.17 C341.1 51.13, 360.55 28.83, 386.82 0.53 M328.94 70.96 C346.65 50.77, 365.62 27.71, 393.68 0.51 M328.75 72.6 C346.63 54.26, 362.66 35.93, 391.74 0.6 M333.63 71.61 C350.57 54.04, 368.68 35.47, 397.13 1.4 M334.36 73.16 C350.31 54.58, 368.61 34.72, 397.77 -0.07 M340.14 70.85 C354.37 56.45, 366.74 41.11, 396.6 7.94 M341.01 72.13 C360.4 48.92, 379.82 24.39, 396.78 5.49 M343.56 70.78 C361.09 53.76, 376.43 36.41, 398.18 13.88 M345.16 71.51 C364.45 50.57, 384.1 27.06, 397.57 12.18 M351.46 71.79 C364.25 56.04, 376.98 45.06, 397.77 19.67 M351.56 72.79 C368.18 54.24, 382.5 34.52, 398.23 17.71 M354.75 71.52 C369.61 54.94, 386.8 36.36, 399.18 23.48 M355.49 72.99 C369.66 55.67, 384.57 39.11, 396.57 25.62 M362.95 73.74 C368.8 62.64, 379.85 50.37, 398.69 32.78 M362.47 71.68 C374.79 55.97, 388.31 39.71, 396.21 32.01 M366.99 71.33 C375.17 59.96, 386.05 46.84, 397.23 37.61 M366.46 73.05 C373.9 64.08, 381.46 54.74, 397.08 36.87 M370.57 71.22 C378.24 62.94, 386.29 58.19, 398.44 41.73 M371.61 70.87 C378.3 64.71, 384.46 56.66, 396.88 42.35 M376.93 73.31 C384.39 66.07, 387.47 61.45, 399.33 48.29 M376.45 72.6 C384.59 63.59, 390.66 56.08, 398.2 48.52 M384.19 71.39 C387.65 65.57, 393.85 62.55, 397.08 54.82 M383.65 72.36 C385.71 67.36, 389.69 63.3, 396.71 55.42 M388.05 72.13 C391.11 67.76, 392.87 65.97, 396.1 62.47 M388.07 72.74 C391.29 68.1, 393.52 65.09, 396.44 61.05 M393.5 71.8 C394.68 69.8, 396.05 69.06, 397.04 66.6 M393.34 71.55 C394.71 69.93, 396.17 68.68, 397.61 67.01" stroke="#82c91e" stroke-width="0.5" fill="none"></path><path d="M-0.45 -0.4 C98.53 0.85, 198.17 1.71, 396.02 0.48 M0.26 0.56 C113.64 0.43, 226.26 0.33, 397.43 0.09 M398.46 1.9 C398.82 26.71, 395.21 52.01, 398.17 72.99 M396.07 0.36 C398.36 28.15, 397.2 54.86, 396.92 70.4 M397.55 71.48 C297.04 69.9, 198.99 70.77, -0.83 69.88 M396.73 71.18 C247.71 71.42, 98.3 71.35, -0.05 70.43 M0.88 71.79 C2.49 46.51, 2.09 20.75, 1.47 -0.83 M0.16 71.85 C0.48 48.97, 0.77 25.01, 0.14 -1" stroke="#000000" stroke-width="1" fill="none"></path></g><g transform="translate(79.04699318073676 445.75) rotate(0 193.5 11.5)"><text x="0" y="17" font-family="Virgil, Segoe UI Emoji" font-size="20px" fill="#000000" text-anchor="start" style="white-space: pre;" direction="ltr">Document Request</text></g><g stroke-linecap="round" transform="translate(278.54699318073676 522.75) rotate(0 169.5 16.5)"><path d="M0 0 C0 0, 0 0, 0 0 M0 0 C0 0, 0 0, 0 0 M-0.63 6.66 C1.91 4.43, 1.83 2.83, 5.06 0.69 M-0.19 6.36 C1.26 4.93, 1.93 3.79, 4.84 0.61 M-0.84 12.48 C3.49 7.8, 5.74 5.12, 11.46 1.37 M0.19 12.28 C3.56 8.41, 4.78 5.61, 10.62 -0.12 M-0.65 17.43 C3.96 11.36, 10.34 6.97, 14.62 1.45 M-0.36 17.7 C4.34 13.12, 7.85 8.84, 14.71 -0.21 M-0.15 23.69 C5.53 20.24, 9.53 12.28, 20.17 1.54 M0.65 25.01 C7.44 15.2, 14.67 7.02, 21.1 0.7 M-0.96 32.18 C7.26 23.35, 13.73 13.69, 27.88 0.26 M-0.13 30.24 C7.54 23.15, 12.49 16.4, 26.43 1.06 M1.04 35.78 C14.37 23.19, 25.23 7.11, 30.07 1.89 M2.23 35.16 C9.24 26.96, 16.13 17.69, 31.55 -1.03 M8.93 35.67 C13.77 26.13, 22.08 14.46, 38.61 -0.28 M6.77 33.64 C17.69 21.43, 28.63 10.31, 37.68 0.2 M10.91 33.03 C17.97 28.28, 24.42 19.52, 44.24 0.91 M12.27 34.56 C23.39 21.44, 36.86 6.44, 42.15 -0.82 M18.83 33.68 C29.95 21.21, 42.23 9.48, 47.39 1.51 M18.13 34.38 C25.95 24.05, 35.34 14.17, 46.63 1.08 M23.72 34.8 C30.5 27.72, 38.21 18.13, 53.46 -0.68 M23.34 35.09 C30.28 25.8, 39.92 15.88, 52.86 0.8 M26.46 34.59 C40.15 20.78, 50.99 7.11, 59.69 0.9 M27.54 35.88 C35.43 27.06, 43.5 17.14, 58.8 1.03 M31.83 35.5 C39.3 25.64, 48.96 16.6, 62.42 -1.56 M34.5 35.5 C43.87 23.79, 54.63 10.3, 64.44 -0.75 M36.68 33.36 C49.83 25.21, 57.39 11.63, 67.91 0.77 M38.64 35.5 C45.28 28.28, 50.28 19.41, 67.96 -0.19 M42.51 33.12 C58.07 20.69, 68.82 6.36, 75.7 -1.8 M45.1 35.01 C51.89 24.68, 58.76 16.73, 73.46 -1.1 M48.31 33.77 C60.22 24.66, 66.93 12.15, 81.34 1.58 M48.91 35.8 C59.06 24.42, 68.1 12.24, 79.19 0.64 M55.91 35.26 C66.04 22.4, 73.78 9.34, 83.8 -0.89 M55.77 34.27 C63.76 23.35, 71.77 14.84, 85.27 0.08 M58.73 35.46 C67.96 25.12, 75.11 16.21, 88.18 -0.61 M59.25 34.54 C65.35 28.48, 71.52 20.45, 89.89 -0.79 M67.12 33.09 C72.88 26.66, 79.75 14.16, 97.12 0.27 M65.48 34.41 C73.35 23.69, 82.33 14.65, 95.03 0.06 M69.2 36.66 C80.03 21.57, 91.74 10.52, 101.54 -0.15 M70.39 34.44 C80.65 22.48, 89.53 11.72, 100.72 0.65 M76.12 35.4 C87.26 25.16, 96.04 10.96, 107.98 1.38 M76.44 33.98 C85.45 23.86, 93.95 15.42, 106.69 0.08 M82.91 36.2 C89.65 25.34, 95.65 18.35, 109.42 0.21 M81.84 34.18 C92.65 20.83, 105.49 8.09, 110.65 0.54 M85.78 34.55 C95.78 22.37, 107.01 14.98, 115.92 1.48 M87.21 34.02 C96.57 24.61, 104.48 12.61, 115.34 1.09 M90.95 35.49 C103.76 21.71, 115.4 9.11, 120.74 -0.7 M90.9 35.37 C102.21 23.77, 112.38 12.18, 121.97 -0.08 M95.92 32.51 C105.5 23.88, 114.52 16.67, 128.39 1.96 M97.62 34.99 C104.03 25.49, 111.11 18.61, 126.83 -0.3 M102.32 36.54 C110.2 25.02, 117.24 16.53, 131.34 -0.43 M101.7 35.59 C113.62 21.4, 126 7.67, 133.24 0.28 M109.22 34.84 C117.69 25.11, 123.38 15.28, 138.76 1.05 M107.79 33.83 C115.73 24, 125.72 16.17, 136.85 -0.23 M113.92 35.96 C123.21 23.57, 129.8 12.45, 141.93 1.03 M112.12 35.38 C123.43 23.08, 132.68 11.11, 142.32 0.56 M117.29 32.68 C124.28 25.44, 133.75 18.32, 146.96 0.82 M119.16 34.91 C125.38 25.05, 134.22 16.76, 148.55 0.34 M124.57 34.95 C131.31 23.78, 138.79 15.13, 152.16 -0.7 M122.88 35.2 C133.04 22.46, 143.05 10.53, 153.38 0.16 M130.65 32.79 C138.03 27.56, 141.87 16.07, 156.83 1.94 M129.44 35.08 C135.94 26.88, 142.58 19.75, 158.85 -0.59 M132.96 33.29 C140.62 26.7, 151.49 15.53, 162.58 -0.39 M134.46 34.51 C141.46 24.48, 149.66 15.9, 163.88 -0.08 M140.71 35.5 C146.79 24.74, 155.58 17.89, 170.12 1.67 M139.67 34.61 C150.42 23.16, 160.55 11.15, 169.49 0.94 M143.74 35.39 C157.65 19.89, 168.42 6.58, 176.63 -1.24 M144.17 34.68 C154.58 23.58, 165.32 11.9, 175.56 -0.84 M149.15 33.5 C156.17 27.74, 165.98 16.73, 180.48 -0.14 M150.49 35 C157.55 25.22, 164.93 16.13, 180 -0.18 M157.42 36.2 C164.46 24.71, 173.53 12.84, 186.66 -0.85 M155.09 34.07 C166.52 23.64, 175.41 12.24, 185.49 0.63 M160.49 34.82 C166.99 25.96, 177.29 18.46, 191.47 0.97 M159.85 34.94 C167.43 27.24, 172.91 20.92, 190.7 0.91 M164.43 35.32 C176.21 23.6, 186.79 10.56, 195.94 -1.23 M167.12 34.96 C177.54 22.41, 188.81 9.71, 197 -0.46 M172.23 33.31 C180.12 24.01, 191.67 13.81, 202.56 0.04 M171.99 33.83 C180.8 23.54, 191.89 12.44, 201.71 0.03 M175.13 34.91 C186.23 23.2, 194.21 14.07, 208.64 1.22 M175.94 34.61 C186.93 24.37, 195.78 12.45, 206.76 0.54 M183.42 35.71 C187.94 23.45, 199 15.29, 211.11 0.7 M181.12 35.77 C190.29 25.54, 198.75 15.73, 211.96 0.93 M185.75 33.72 C194.95 26.69, 199.81 18.73, 215.83 -2.32 M188.03 34.21 C199.38 22.07, 209.41 7.93, 217.7 -1.24 M191.99 36.31 C201.2 26.15, 206.94 15.05, 222.41 1.19 M191.75 35.3 C199.85 27.43, 206.63 19.13, 222.16 0.35 M196.46 33.11 C207.8 25.26, 214.5 12.92, 229.5 0.93 M197.67 33.92 C207.34 21.91, 218.8 11, 228.06 -1.23 M204.8 35.02 C207.58 26.91, 216.44 18.78, 231.64 0.32 M203.68 34.45 C215.04 22.78, 226.11 10.34, 233.83 0.93 M209.3 35.04 C214.82 23.68, 226.49 16.15, 239.87 0.09 M207.93 33.84 C216.4 26.74, 221.46 18.41, 237.72 0.33 M215.63 35.33 C221.11 23.65, 230.24 14.59, 241.88 -0.49 M213.01 35.66 C221.1 24.76, 230.25 16.84, 244.27 0.32 M218.24 36.04 C229.73 19.79, 244.04 6.55, 248.05 -0.39 M219.7 35.05 C229.73 22.43, 241.27 10.18, 247.83 0.42 M223.13 34.33 C230.02 28.58, 235.62 20.49, 254.14 0.78 M225.14 34.85 C234.43 22.96, 245.22 10.72, 253.6 0.08 M231.16 33.25 C238.09 20.57, 251.83 9.03, 260.09 1.81 M230.63 34.55 C238.23 24.57, 246.89 14.23, 259.86 0.72 M236.87 32.72 C245.03 24.26, 251.78 13.15, 265.32 0.74 M235.76 34.38 C244.41 22.57, 254.98 11.86, 265.71 0.75 M239.83 34.41 C247.12 23.35, 256.03 17.05, 271.58 1.84 M240.2 34.31 C251.71 21.55, 262.1 9.49, 269.24 -0.39 M247.35 32.75 C254.35 24.14, 265.78 11.76, 274.23 0.57 M245.86 34.08 C252.16 26.61, 261.07 17, 275.31 0.8 M249.93 35.82 C260.35 27.11, 268.07 17.11, 281.05 -1.55 M250.67 34.24 C258.37 24.39, 266.77 14.98, 281.7 -0.08 M255.95 36.31 C263.23 25.3, 271.07 17.36, 287.58 0.07 M256.73 34.21 C263.26 27.35, 268.41 18.55, 286.89 -0.32 M262.41 33.18 C269.24 27.53, 273.39 19.04, 291.9 -0.02 M261.44 33.99 C268 26.28, 274.6 18.96, 292.25 -0.06 M264.96 34.86 C275.94 23.98, 286.62 13.95, 297.99 -0.37 M266.95 34.5 C272.91 25.99, 281.37 18.72, 297.76 0.76 M270.07 36.47 C284.36 22.48, 292.98 9.03, 302.48 -1.65 M272.68 34.86 C283.47 20.83, 295.4 7.61, 302.22 0.42 M275.59 35.45 C283.66 27.25, 293.59 15.45, 306 -1.77 M277.39 35.13 C282.76 27.48, 289.6 18.91, 306.99 0.41 M283.65 36.56 C293.06 20.46, 306.89 8.1, 311.99 -0.9 M282.39 35.39 C291.78 23.78, 301.86 13.15, 312.21 -0.46 M289.93 34.74 C295.93 25.73, 305.95 15.13, 318.03 -0.55 M288.25 33.72 C298.16 21.64, 308.39 10.31, 318.49 -1.1 M292.47 36.14 C300.1 27.01, 309.38 16.08, 322.59 -0.65 M294.03 35.31 C300.56 27.9, 306.57 18.42, 323.15 -0.05 M297 32.98 C309.94 21.4, 320.72 6.81, 328.43 1.44 M297.99 34.37 C308.91 22.53, 320.22 9.7, 327.93 -0.51 M301.74 36.52 C311.43 26.47, 317.81 20.62, 333.32 1.81 M302.83 35.3 C314.47 22.94, 323.56 10.9, 333.23 -0.25 M310.71 36 C321.52 20.27, 329.63 9.27, 340.78 -0.28 M308.39 34.61 C316.21 28.02, 320.75 20.76, 339.15 0.13 M314.58 35.57 C321.96 28.77, 324.11 22.76, 340.88 6.82 M314.85 34.01 C320.34 27.83, 325.02 20.6, 339.73 5.54 M319.9 33.23 C325.2 27.03, 332.1 22.1, 338.07 14.23 M319.5 34.43 C324.86 30.11, 328.31 24.98, 339.23 11.55 M326.02 33.78 C327.95 29.11, 334.03 24.12, 340.12 18.3 M325.92 35.04 C330.23 28.07, 335.74 22.38, 338.43 17.31 M330.4 35.21 C332.07 31.61, 335.97 28.67, 339.8 23.89 M330.67 34.93 C333.44 30.67, 336.3 27.65, 339.1 24.52 M335.93 35.05 C336 33.27, 337.53 32.44, 338.49 30.77 M335.35 34.47 C336.14 33.71, 337.24 32.95, 338.65 30.73" stroke="#228be6" stroke-width="0.5" fill="none"></path><path d="M-1.16 -1.22 C72.35 0.56, 145.61 1.35, 338.8 0.59 M0.62 -0.3 C91.37 -2.64, 183.19 -2.11, 339.38 -0.02 M340.84 1.38 C337.47 12.86, 340.41 25.01, 340.8 34.54 M339.81 0.46 C338.34 11.08, 338.61 22.58, 338.49 33.98 M337.94 32.37 C245.85 34.35, 151.52 32.65, 1.03 33.03 M339.37 33.55 C238.67 34.2, 137.08 33.06, 0.36 32.41 M1.87 33.61 C1.32 22.62, 1.33 11.53, 0.4 -1.39 M-0.02 33.68 C0.22 24.76, 0.09 16.69, -0.8 0.3" stroke="#000000" stroke-width="1" fill="none"></path></g><g transform="translate(283.54699318073676 527.75) rotate(0 164.5 11.5)"><text x="164.5" y="17" font-family="Virgil, Segoe UI Emoji" font-size="20px" fill="#000000" text-anchor="middle" style="white-space: pre;" direction="ltr">JavaScript Bundle</text></g><g stroke-linecap="round" transform="translate(87.04699318073676 475.25) rotate(0 191 16.5)"><path d="M0 0 C0 0, 0 0, 0 0 M0 0 C0 0, 0 0, 0 0 M0.51 6.05 C0.07 4.88, 1.97 4.26, 4.53 -0.06 M-0.05 6.45 C1.43 4.36, 3.77 1.84, 4.85 0 M0.6 11.06 C3.95 7.18, 8.64 4.67, 10 0.44 M0.86 11.45 C1.46 9.33, 4.37 7.02, 10.45 0.13 M-0.38 16.48 C7.22 10.82, 10 6.89, 14.75 -0.6 M0.22 17.7 C3.77 13.53, 7.09 8.73, 15.02 -0.14 M0.36 25.87 C3.86 18.59, 8.22 15.39, 22.6 1.54 M-0.07 24.11 C6.11 16.83, 13.53 9.1, 21.05 0.06 M-0.01 31.85 C8.04 20.32, 19.27 10.11, 25.09 -1.4 M0.93 30.41 C6.96 22.53, 15.03 14.28, 26.91 0.02 M3.22 36.17 C14.69 19.34, 23.12 9.85, 30.82 -0.94 M1.66 35.34 C8.3 25.99, 15.94 16.56, 31.63 0.65 M5.93 35.66 C16.9 20.42, 30.85 8.12, 38.15 1.16 M7.11 33.9 C17.7 23.59, 28.7 10.93, 36.02 -0.33 M11.3 36.01 C23.52 21.13, 38.28 8.29, 44.48 -0.1 M11.39 35.11 C20.39 25.27, 27.04 16.6, 43.4 -0.49 M18.36 34.34 C27.23 26.44, 34.12 16.68, 47.1 -0.1 M17.64 33.72 C29.33 21.09, 38.26 10.6, 46.86 0.48 M23.5 35.92 C33.5 23.52, 42.17 12.12, 52.47 -1.58 M22.01 35.07 C32.9 23.39, 41.36 13.72, 53.9 0.66 M29.12 33.9 C38.95 21.75, 49.86 12.56, 57.04 -1.76 M27.69 35.84 C40.13 20.75, 52.02 8.7, 57.74 1.07 M31.76 34.44 C40.68 26.46, 46.12 17.39, 64.58 -1.4 M33.4 35.3 C39.67 26.32, 46.11 19.67, 63.96 -0.42 M40.17 35.94 C44.63 26.55, 50.35 21.59, 66.97 0.18 M38.95 35.66 C47.51 22.48, 57.6 11.52, 69.76 0.02 M45.97 34.7 C55.35 22.49, 66.61 9.21, 73.52 -0.01 M44.23 33.8 C54.7 21.2, 66.19 6.76, 74.7 0.19 M50.45 35.88 C54.49 26.77, 65.51 20.13, 79.78 0.34 M49.47 35.32 C56.22 25.61, 63.59 18.42, 79.84 0.87 M55.9 34.43 C62.74 22.07, 72.81 11.42, 84.88 -0.26 M54.95 33.55 C63.53 24.07, 74.16 12.54, 84.56 -0.13 M60.42 34.01 C70.81 21.5, 79.47 9.54, 88.29 1.9 M59.23 35.62 C65.66 27.62, 72.87 19.11, 89.68 1.08 M65.23 35.95 C73.84 21.34, 86.68 12.16, 95.18 -1.4 M64.84 33.46 C76.61 21.22, 87.06 9.24, 96.25 0.46 M69.48 34.19 C81.46 22.8, 93.3 9.3, 101.21 -1.33 M70.52 33.84 C78.42 24.34, 88.33 15.04, 100.76 -0.9 M77.56 36.19 C88.55 19.29, 100.94 9.32, 105.85 -1.1 M76.95 33.41 C85.29 25.14, 93.04 15.78, 105.81 -0.76 M81.92 33.89 C87.31 27.01, 93.5 17.94, 113.17 1.03 M80.94 34.71 C92.66 23.12, 102.28 10.06, 111.39 -0.68 M86.38 32.65 C94.89 28.55, 99.12 20.97, 116.54 -0.66 M87.15 35.22 C94.27 24.04, 102.87 15.34, 116.9 0.72 M92.95 34.17 C101.69 24.95, 106.47 15.76, 122.68 1.95 M92.34 35.39 C100.44 26.31, 107.77 16.39, 121.66 -0.92 M97.1 33.44 C109.66 22.71, 121.88 10, 125.8 1.94 M97.08 33.67 C104.46 26.16, 112.42 15.98, 126.43 0.57 M102.65 33.68 C110.01 24.54, 117.03 15.75, 134.19 -0.98 M101.93 34.53 C110.69 24.95, 118.67 17.03, 132.45 -0.33 M109.02 35.26 C117.68 21.7, 132.53 7.9, 137.11 -1.44 M107.2 33.5 C118.2 24.72, 125.73 12.78, 137.67 1.2 M114.06 34.66 C122.17 21.41, 133.88 9.91, 144.04 0.4 M113.16 35.21 C123.61 21.99, 134.94 9.18, 142.46 -0.66 M117.36 33.4 C131.42 21.49, 139.84 9.5, 147.52 1.92 M117.75 34.39 C129.84 21.97, 141.49 8.06, 147.83 -0.3 M123.08 32.96 C130.92 23.66, 138.92 14.29, 154.47 -1.15 M122.81 33.96 C131.53 23.65, 140.44 15.16, 153.15 0.3 M131.25 35.74 C138.95 19.74, 149.13 10.74, 156.97 0.33 M129.78 33.99 C139.19 23.36, 147.24 12.44, 158.4 -0.37 M132.55 36.01 C147.48 20.62, 156.04 7.59, 163.63 1.73 M133.95 33.78 C146.13 20.55, 157.4 7.31, 163.82 -0.31 M139.7 32.78 C149.47 24.43, 156.8 16.64, 170.33 -0.3 M140.14 34.87 C148.91 24.39, 157.55 14.63, 170.2 0 M146.19 32.83 C153.16 23.99, 161.44 16.33, 175.59 0.99 M144.94 35.1 C157.23 21.9, 167.88 8.24, 174.54 0.63 M148.99 36.33 C160.5 23.71, 168.53 13.97, 179.35 1.51 M149.8 34.35 C157.38 24.74, 166.4 15.17, 180.32 0.26 M154.64 36.04 C162.47 24.94, 174.07 13, 186.3 -0.84 M156.45 34.83 C161.84 27.75, 168.09 20.93, 185.18 -0.82 M159.29 34.55 C170.76 25.7, 178.64 15.75, 188.7 0.86 M161.5 34.41 C172.13 22.39, 182.71 10.34, 191.16 -0.67 M165.44 35.87 C176.84 22.1, 188.08 8.02, 197.65 -0.61 M166.43 35.31 C177.34 22.49, 188.54 8.73, 196.41 -0.66 M170.68 34.46 C179.16 27.79, 185.04 20.2, 201.96 0.43 M170.84 35.25 C182.54 23.41, 193.1 9.89, 201.41 0.57 M177.04 34.11 C186.54 23.49, 199.91 11.53, 207.41 -0.6 M177.14 35.36 C183.52 26.57, 190.8 19.19, 206.7 0.1 M179.81 32.91 C190.77 24.39, 197.57 15.81, 211.6 0.49 M181.83 35.29 C190.37 25.35, 198.78 16.06, 211.07 0.8 M188.81 34.17 C197.65 22.05, 206.16 9.25, 219.26 1.52 M188.14 35.21 C193.78 25.93, 202.1 16.51, 217.31 0.36 M193.24 35.36 C197.58 25.7, 205.78 20.16, 221.02 0.92 M193.3 34.88 C199.96 26.81, 204.93 20.26, 222.41 -0.7 M198.99 35.04 C205.82 23.06, 216.41 16.49, 228.79 -1.34 M197.26 33.59 C210.81 20.56, 221.77 6.28, 227.3 0 M201.44 33.84 C209.89 25.77, 213.49 20.79, 234.51 -0.81 M203.88 35.32 C211.43 26.75, 218.88 17.95, 233.03 0.78 M206.76 33.32 C219.5 24.33, 229.26 12.06, 236.84 1.1 M209.66 34.66 C217.16 23.95, 226.55 13.6, 237.87 -0.39 M212.77 32.99 C223.06 22.12, 230.48 12.13, 243.26 0.35 M212.98 33.9 C220.31 28.02, 226.63 20.57, 244.79 0.43 M218.2 33.19 C229.44 23.44, 235.56 13.92, 250.14 -0.58 M218.78 35.03 C230 22.76, 239.4 9.73, 247.99 0.44 M223.53 36.05 C231.33 25.7, 241.23 15.92, 255.39 -0.96 M223.82 34.81 C231.13 26.17, 237.64 18.03, 254.89 0.87 M228.29 32.42 C242.58 20.15, 252.11 10.9, 259.32 -0.91 M229.36 34.76 C240.14 21.62, 252.15 9.22, 259.45 0 M235.88 34.83 C243.95 22.11, 256.18 11.14, 265.91 1.53 M234.42 34.23 C241.86 26.85, 250.13 18.39, 264.8 -0.8 M238.9 32.38 C247.37 26.72, 256.97 18.76, 271.62 -0.62 M240.44 34.39 C249.12 24.41, 258.42 12.18, 270.5 -0.04 M243.93 35.75 C251.16 28.12, 256.6 20.75, 274.73 -0.36 M244.58 35.29 C254.85 24.13, 263.07 14.9, 275.28 -0.06 M252.85 36.05 C264.79 21.19, 274.82 5.63, 280.14 0.2 M250.35 33.88 C262.57 20.27, 275.64 7.08, 280.19 -0.03 M255.66 33.83 C264.24 24.81, 273.81 15.69, 284.68 0.81 M256.91 35.06 C266.48 21.04, 278.79 8.87, 285.4 0.09 M263.16 34.72 C270.82 22.2, 281.33 12.16, 289.92 0.02 M261.07 34.43 C271.83 22.49, 284.29 9.27, 291.36 0.61 M266.98 34.66 C280.03 22.22, 290.43 8.65, 295.49 -1.93 M265.82 33.57 C274.19 26.35, 281.03 19.95, 297.54 0.09 M273.76 35.05 C283.47 20.44, 295.62 6.34, 303.89 1.9 M271.83 34.39 C278.84 26.48, 286.38 18.28, 301.64 0.43 M275.71 36.45 C286.31 24.1, 292.95 13.46, 305.79 0.03 M276.51 34.81 C286.89 21.99, 296.47 12.33, 308.34 -1.15 M281.5 33.54 C294.4 21.75, 302.63 9.37, 312.88 -0.47 M282.21 34.87 C293.71 22.44, 303.84 9.02, 312.48 0.94 M287.54 36 C300.63 21.46, 311.63 6.39, 319.14 0.92 M287.97 33.7 C297.75 23.03, 308.28 10.78, 317.78 0.7 M292.81 35.52 C300.81 25.97, 305.02 19.48, 321.66 -0.84 M293.72 35.64 C302.29 22.67, 311.79 12.48, 324.09 -0.43 M298.12 34.68 C305.46 24.6, 314.36 18.18, 329.98 -1.46 M298 35.15 C310.79 20.9, 321.91 6.71, 328.1 0.45 M305 33.92 C311.51 28.04, 316.48 21.31, 334.87 1.65 M304.18 34.94 C310.53 26.23, 318.43 16.96, 334.52 0.74 M310.96 32.47 C314.87 25.78, 324.69 17.72, 337.66 0.29 M310.19 34.98 C316.95 25.46, 326.02 15.54, 338.86 0.36 M316.31 35.28 C318.89 28.59, 328.58 20.79, 343.06 0.44 M314.71 34.48 C323.82 22.15, 335.24 10.7, 344.59 0.8 M319.49 33.96 C331.8 22.97, 341.62 10.31, 347.8 1.92 M320.93 35 C331.81 21.46, 343.13 7.21, 349.25 -0.11 M323.88 33.72 C335.09 22.75, 344.11 13.63, 356.71 -0.42 M324.72 34.4 C334.13 23.73, 343.1 11.44, 354.91 -0.93 M329.07 34.3 C338.8 25.34, 346.39 16.27, 360.87 -1.49 M330.4 33.95 C341.95 20.74, 353.77 7.31, 359.73 -0.3 M333.74 32.94 C342.45 26.14, 346.36 19.61, 364.19 -0.3 M334.92 34.3 C347.73 22.15, 357.08 8.92, 364.92 0.81 M342.93 33.26 C347.22 23.61, 359.06 15.39, 370.29 -1 M341.59 34.53 C347.41 26.1, 354.67 18.4, 371.08 1.15 M346.85 36.26 C354.42 25.41, 365.26 14.95, 377.77 0.04 M346.31 34.22 C357.96 20.73, 370.16 7.28, 375.83 0.23 M352.23 33.2 C363.83 21.27, 373.45 12.4, 383.05 1.17 M351.28 34.41 C358.63 26.17, 363.32 20.72, 382.05 0.32 M357.07 36.58 C362.71 26.05, 372.68 17.94, 385.67 2.68 M357.2 33.68 C367.12 23.4, 377.44 12.05, 385.68 1.77 M362.02 33.06 C369.87 27.96, 372.92 19.7, 385.8 6.69 M363.03 35.18 C370.28 24.94, 378.29 14.75, 384.46 8.02 M369.15 34.39 C372.19 30.14, 375.92 24.07, 382.77 14.34 M368.19 34.64 C375.04 26.16, 380.2 19.87, 385.06 14.85 M372.61 35.12 C374.71 32.97, 379.59 28.29, 385.28 21.92 M371.62 34.2 C375.92 29.51, 380.64 25.51, 384.6 19.75 M377.43 35.16 C380.12 33.44, 381.91 31.01, 383.77 26.84 M377.63 34.51 C379.86 32.55, 380.92 30.61, 384.54 27.1" stroke="#fa5252" stroke-width="0.5" fill="none"></path><path d="M-0.91 -0.2 C100.3 2.59, 202.47 2.61, 381.64 0.55 M0.03 -0.38 C152.45 1.14, 304.33 1.02, 382.29 0.44 M380.23 1.35 C383.48 15.02, 384.1 27.61, 383.03 31.15 M381.65 -0.51 C382.18 10.49, 381.76 23.17, 381.75 33.48 M382.1 33.35 C250.41 30.76, 121.47 31.96, -0.03 32.43 M382.53 33.42 C255.16 34.28, 128.75 34.34, 0.08 33.26 M1.46 32.94 C1.16 20.96, 0.09 9.19, -1.36 0.33 M0.27 32.41 C0.15 19.29, -0.79 7.89, -0.53 -0.3" stroke="#000000" stroke-width="1" fill="none"></path></g><g transform="translate(92.04699318073676 480.25) rotate(0 186 11.5)"><text x="186" y="17" font-family="Virgil, Segoe UI Emoji" font-size="20px" fill="#000000" text-anchor="middle" style="white-space: pre;" direction="ltr">Slow Data</text></g><g stroke-linecap="round" transform="translate(623.5469931807368 191.5) rotate(0 191 16.5)"><path d="M0 0 C0 0, 0 0, 0 0 M0 0 C0 0, 0 0, 0 0 M-0.52 7.18 C2.06 4.31, 4.5 1.39, 4.63 1.09 M-0.3 6.37 C1.51 4.58, 3.13 2.52, 5.34 0.11 M0.65 12.38 C2.23 9.27, 8.12 5.33, 11.22 -0.97 M-0.55 12.27 C2.14 9.09, 5.42 5.25, 9.97 0.41 M-1.32 17.51 C3.79 15, 7.82 12.53, 13.95 -1.5 M-0.61 19.18 C5.42 11.96, 12.37 3.77, 16.13 -0.42 M0.34 22.28 C4.05 19.72, 10.48 14.48, 19.46 0.43 M0.8 24.08 C7.85 15.1, 15.61 7.86, 21.1 0.2 M-1.65 29.07 C4.96 24.5, 12.62 15.02, 25.14 -0.35 M0.01 30.66 C6.34 22.75, 11.9 17.06, 25.87 0.4 M3.02 35.06 C12.22 23.97, 18.64 13.37, 31.17 -1.93 M2.16 34.46 C13.94 21.27, 26.36 7.59, 31.19 -1.1 M5.76 34.53 C14.91 23.08, 22.97 16.29, 37.47 1.37 M7.96 34.25 C18.92 21.65, 29.32 8.61, 36.57 0.18 M11.34 32.59 C18.81 24.43, 27.06 15.68, 41 -2.02 M12.24 33.83 C20.61 23.87, 29.86 13.93, 43.07 0.46 M18.33 35.81 C27.62 24.71, 36.96 14.01, 48.6 -0.02 M17.87 33.74 C27.01 22.26, 38.6 11.62, 48.47 0.81 M24.68 32.9 C32.88 23.12, 43.66 10.96, 54.31 -1.96 M23.7 34.11 C30.04 26.34, 37.4 17.92, 54.03 -0.87 M28.38 34.44 C39.92 21.45, 53.39 5.54, 56.14 -1.61 M28.64 35.37 C35.88 27.34, 41.49 19.96, 57.65 -0.81 M35.51 34.03 C46.73 21.59, 57.2 8.65, 65.41 1.71 M34.15 33.6 C40.07 27.81, 47.01 18.64, 64.65 0.66 M38.39 35.5 C47.99 22.59, 61.32 7.87, 67.58 0.12 M37.74 34.79 C48.95 22.14, 60.53 8.47, 68.96 0.14 M46.2 34.6 C54.35 20.34, 69.07 5.66, 75.5 0.06 M44.02 34.59 C55.84 22.62, 65.39 10.61, 73.82 -0.79 M47.79 33.93 C57.64 24.8, 67.47 11.9, 78.31 -0.73 M48.95 34.37 C55.47 26.76, 63.43 19.26, 79.05 -0.57 M55.02 35.86 C61.96 27.34, 66.75 21.24, 86.68 -2.27 M55.52 34.27 C63.52 24.39, 74.54 13.16, 85.71 0.41 M61.55 33.51 C68.17 28.22, 72.26 20.89, 89.66 -1.45 M60.01 35.18 C71.47 23.5, 80.52 10.08, 89.37 0.8 M66.16 35.63 C76.28 21.3, 87.22 9.08, 95.97 -1.04 M65.67 33.82 C74.11 25.03, 80.74 16.22, 94.8 0.35 M71.56 33.6 C81.24 19.93, 95.89 5.36, 98.83 -0.76 M70.96 34.74 C82.09 21.97, 93.92 9.2, 101.18 0.94 M75.71 34.32 C82.79 27.09, 89.9 18.65, 105.28 1.61 M75.27 35.37 C82.98 27.4, 88.96 19.27, 106.85 0.58 M82.62 35.18 C87.27 25.52, 95.54 18.83, 112.95 -0.77 M81.13 34.03 C88.06 26.24, 95.27 18.31, 110.51 0.48 M85.67 32.95 C97.17 20.28, 109.32 8.2, 114.78 -0.15 M85.93 34.98 C93.34 27.93, 99.29 19.71, 115.28 -0.18 M90.42 34.79 C102.6 22.39, 111.97 11.13, 123.05 -1 M92.15 34.47 C102.76 22.94, 113.81 10.23, 121.21 -0.98 M97.93 35.11 C106.12 25.83, 113.44 15.1, 127.52 -0.8 M97.06 33.7 C107.23 22.61, 117.28 11.79, 126.77 0.02 M103.57 34.59 C111 22.43, 121.52 11.05, 134.06 -0.38 M102.95 34.94 C109.65 26.37, 118.54 16.1, 131.91 0.09 M108.32 33.02 C115.2 25.99, 121.28 18.74, 139.47 -0.95 M108.85 34.5 C118.49 23.77, 127.43 12.38, 138.31 -0.17 M113.59 36.33 C122.68 23.91, 132.5 10.09, 142.81 0.77 M112.76 34.79 C120.16 26.46, 125.45 20.31, 143.06 0.21 M120.53 33.45 C126.5 23.37, 134.52 13.47, 148.18 -0.41 M119.32 33.32 C128.56 22.55, 140.18 9.06, 148.88 0.6 M124.88 35.34 C131.42 26.25, 137.09 17.55, 152.06 -1.3 M124.09 34.79 C131.99 24.85, 140.59 13.84, 153.88 -0.19 M128.21 35.81 C139.91 20.04, 151.65 7.25, 158.1 0.65 M129.24 34.04 C138.52 23.37, 147.07 12.56, 159.73 0.13 M132.78 34.56 C143.39 21.41, 157.36 7.6, 164.46 0.27 M133.76 34.18 C144.6 22.9, 154.6 11.72, 165.4 0.31 M140.86 34.06 C147.63 24.4, 159.32 14.37, 170.59 -0.38 M139.21 33.52 C150.92 20.83, 163.31 7.83, 169.4 -0.32 M145.52 34.52 C152.96 23.33, 161.84 13.91, 176.57 0.92 M143.9 33.67 C151.74 27.56, 158.31 20.51, 175.46 -0.93 M149.28 35.54 C158.14 26.67, 165.42 16.58, 181.9 1.5 M149.97 35.29 C159.52 23.5, 171.13 10.22, 180.75 0.95 M154.23 35.33 C166.98 22.44, 177.07 9.05, 184.85 -1.3 M154.9 34.39 C165.79 20.94, 176.08 10.47, 185.66 0.38 M162.11 35.9 C169.18 27.52, 176.5 17.4, 189.21 0.87 M160 35.61 C171.6 24.03, 179.77 11.98, 189.93 1.11 M166.96 34.71 C174.41 24.73, 181.95 14.67, 195.68 0.25 M166.48 34.96 C173.23 26.02, 182.1 17.41, 196.43 0.53 M171.95 33.66 C178.65 26.96, 184.75 18.53, 200.59 -0.07 M170.65 34.92 C181.93 22.2, 194.1 8.73, 201.37 -0.22 M178.66 33.97 C183.37 28.79, 190.04 18.42, 207.32 -1.21 M176.65 34.41 C186.54 22.65, 197.58 12.68, 206 -1.28 M179.94 33.17 C189.95 27.38, 195.53 20.25, 213.03 -1.55 M181.68 33.87 C190.71 25.02, 200.51 14.21, 212.82 0.01 M189.18 36.01 C194.18 24, 203.45 15.34, 215.98 0.15 M186.7 35.26 C193.64 26.46, 200.88 19.1, 217.36 0.12 M193.14 35.39 C201.38 24.96, 208.03 13.09, 222.4 -0.21 M191.67 35.09 C198.97 27.2, 207.61 17.08, 222.32 -0.65 M197.28 35.33 C205.51 27.04, 212.01 19.94, 229.73 0.75 M198.25 34.46 C209.82 20.85, 220.74 8.88, 227.34 -1.14 M202.53 35.86 C215.67 20.49, 227.7 7.17, 233.5 0.93 M203 34.12 C213.42 22.99, 222.05 11.23, 233.19 0.75 M210.64 36.01 C218.8 25.21, 228.57 10.47, 237.92 2.35 M208.17 34.43 C214.93 28.1, 222 19.95, 238.87 -0.23 M212.97 34.71 C223 20.73, 236.36 9.94, 242.03 -1.59 M212.84 34.48 C224.11 21.76, 235.14 9.75, 243.07 -0.35 M219.83 33.74 C226.5 26.8, 230.95 19.32, 247.77 -0.95 M219.67 34.03 C229.95 21.42, 240.02 10.49, 248.69 0.37 M225.24 34.67 C234.76 24.74, 242.93 10.25, 252.61 -1.6 M224.14 34.64 C234.19 22.1, 245.66 11.66, 254.89 -1.07 M228.32 33.79 C238.54 25.16, 244.14 18.93, 258.42 -0.2 M229.24 33.59 C236.43 25.16, 244.33 17.5, 260.33 0.4 M234.03 35.07 C242.49 23.34, 253.39 12.11, 264.73 -1.36 M234.68 35.02 C246.88 20.63, 259.86 6.19, 265.87 -0.08 M242.52 33.04 C246.21 26.78, 254.24 17.35, 269.59 -0.61 M239.66 33.87 C248.28 24.73, 255.47 16.17, 269.79 -0.21 M245.92 33.82 C254.79 23.24, 266.66 11.39, 274.82 -1.53 M246.02 34.99 C253.05 27.22, 257.93 19.39, 276.53 -0.59 M249.7 33.95 C261.09 23.13, 267.95 14.53, 278.9 1.22 M251.01 35.1 C259.28 24.98, 265.92 17.44, 279.87 0.43 M257.41 33.43 C265.87 26.8, 274.13 14.01, 286.21 0.81 M256.5 33.88 C267.77 20.77, 279.76 6.75, 285.69 0.65 M259.41 35.33 C270.62 27.09, 279.44 16.75, 291.88 -0.75 M261.03 34.71 C273.78 21.51, 285.77 6.51, 291.16 1.16 M264.91 35.02 C275.6 26.02, 284.79 17.61, 295.11 -1.79 M266.3 33.96 C277 21.84, 286.28 10.75, 297.46 0.31 M272.08 35.33 C280.57 22.34, 289.01 12.5, 303.97 0.07 M272.7 35.32 C281.18 23.26, 291.41 13.18, 301.04 0.78 M278.72 36.27 C285.47 26.12, 296.09 15.42, 308.69 -1.23 M278.35 33.48 C286.21 22.61, 295.45 11.88, 308.27 -0.44 M281.06 33.95 C294.98 22.48, 303.2 12.76, 314.5 0.84 M283.33 34.27 C295.4 21.23, 307.22 6.38, 312.7 1.04 M289.06 33.49 C298.69 24.47, 307.15 12.81, 318.96 0.22 M287.4 33.61 C295.21 27.94, 301.85 18.89, 317.8 -1.01 M293.26 36.02 C304.64 23.8, 313.48 9.09, 324.73 -0.68 M292.21 35.6 C300.87 25.04, 307.69 17.56, 324.13 -0.37 M300.05 35.55 C305.99 25.93, 309.41 18.05, 328.89 -0.15 M299.01 33.5 C306.59 27.12, 312.29 18.2, 328.08 -0.35 M302.51 33.97 C312.67 21.22, 325.08 9.93, 335.79 -0.14 M302.89 33.81 C310.19 26.71, 318.42 18.18, 333.1 -0.78 M307.72 33.94 C320.57 20.39, 328.83 10.56, 338.33 0.58 M308.51 35.24 C319.23 23.02, 328.14 12.4, 340.4 0.05 M315.55 33.84 C325.86 20.28, 337.24 8.01, 342.77 -0.57 M314.25 34.82 C325.97 22.31, 336.87 9.58, 344.19 0.41 M318 32.73 C324.97 27.96, 333.22 19.33, 349.39 1.66 M320.03 34.87 C329.91 23.26, 341.81 10.27, 349.71 -0.09 M326 33.25 C333.96 23.48, 343.58 14.24, 356.61 1.55 M325.45 35.05 C337.41 20.86, 347.85 8.37, 355.77 0.76 M328.73 34.59 C335.9 26.93, 347.09 16.35, 359.04 1.65 M331.52 33.38 C343.12 20.41, 354.46 7.42, 360.21 0.12 M336.42 35.41 C349.07 23.28, 358.51 9.29, 366.19 -1.63 M334.94 34.33 C345.32 23.38, 353.74 14.19, 365.01 -0.21 M339.67 34.78 C351.28 23.13, 358.53 13.84, 369.21 1.01 M341.71 33.74 C353.44 20.02, 364.1 6.38, 370.45 0.31 M344.25 35.12 C356.83 21.17, 369.26 5.91, 376.28 0.61 M345.47 34.98 C355.06 25.97, 362.31 16.16, 376.87 -0.04 M350.45 35.15 C360.88 23.88, 367.6 17.24, 379.38 1 M351.13 33.85 C362.06 22.23, 371.88 11.62, 380.9 0.79 M355.85 32.8 C365.46 25.9, 369.57 19.49, 383.62 1.87 M357.11 34.74 C364.34 25.21, 371.04 17.34, 385.17 1.95 M362.65 34.16 C369.98 28.08, 372.7 19.53, 384.71 6.8 M363.09 33.56 C367.22 28.61, 373.66 21.24, 385.15 8.65 M368.48 36.43 C375.71 27.58, 380.06 18.71, 383.56 16.36 M368.2 33.84 C371.42 31.55, 374.08 26.9, 384.22 15.45 M373.03 33.66 C375.98 31.02, 380.22 26.69, 384.47 20.36 M372.1 34.47 C377.23 29.78, 380.36 24.54, 385.2 21.52 M377.2 35.06 C380.05 31.24, 383.2 29.58, 385.55 27.12 M378.24 34.22 C379.73 32.09, 382.51 30.34, 384.45 26.71" stroke="#fa5252" stroke-width="0.5" fill="none"></path><path d="M0.78 0.17 C123.87 1.8, 248.74 1.55, 381.34 -0.61 M0.44 0.18 C145.53 1, 290.03 1.17, 381.75 -0.45 M381.37 -0.4 C381.04 6.39, 379.94 14.82, 381.15 32.68 M382.71 0.18 C383.2 9.99, 382.1 21.76, 382.17 33.45 M380.9 34.1 C260.97 30.02, 141.1 31.47, 0.78 33.22 M381.87 32.68 C230.91 33.52, 79.62 33.97, -0.12 32.54 M-1.59 32 C-0.03 24.8, 0.1 16.41, 1.37 1.18 M0.18 33.37 C-0.32 20.79, -0.51 9.26, -0.95 -0.54" stroke="#000000" stroke-width="1" fill="none"></path></g><g transform="translate(628.5469931807368 196.5) rotate(0 186 11.5)"><text x="186" y="17" font-family="Virgil, Segoe UI Emoji" font-size="20px" fill="#000000" text-anchor="middle" style="white-space: pre;" direction="ltr">Slow Data</text></g><g transform="translate(85.54699318073676 10) rotate(0 229 22.5)"><text x="0" y="32" font-family="Virgil, Segoe UI Emoji" font-size="36px" fill="#000000" text-anchor="start" style="white-space: pre;" direction="ltr">Client Side Data Fetching</text></g><g transform="translate(81.54699318073676 370.5) rotate(0 214.5 22.5)"><text x="0" y="32" font-family="Virgil, Segoe UI Emoji" font-size="36px" fill="#000000" text-anchor="start" style="white-space: pre;" direction="ltr">Deferred Data Fetching</text></g><g stroke-linecap="round"><g transform="translate(10.546993180736763 350) rotate(0 538.9594764921815 -0.11024591065944378)"><path d="M-0.55 0.89 C179.07 0.55, 898.68 -0.77, 1078.47 -1.11 M1.37 0.31 C180.8 0, 898.41 -0.03, 1077.76 -0.16" stroke="#000000" stroke-width="1" fill="none"></path></g></g><g stroke-linecap="round" transform="translate(234.04699318073676 205) rotate(0 51.5 52.5)"><path d="M0 53 C0 53, 0 53, 0 53 M0 53 C0 53, 0 53, 0 53 M4.74 56.47 C19.54 37.62, 38.19 19.41, 47.49 4 M3.54 55.36 C14.33 42.5, 27.34 28.46, 45.36 5.22 M5.77 59.88 C22.56 39.21, 40.55 20.35, 53.61 1.01 M4.62 58.85 C18.71 43.76, 33.91 25.43, 53.88 2.4 M10.16 61.89 C22.48 45, 35.79 29.79, 57.2 3.25 M7.61 60.86 C22.22 48.09, 35.43 32.28, 58.35 4.45 M11.35 66.1 C26.61 46.22, 42.32 28.33, 61.54 9.81 M11.62 64.76 C24.63 48.3, 40.02 30.08, 59.09 7.92 M14.17 67.02 C29.87 48.76, 46.77 30.39, 61.79 9.75 M14.7 65.94 C24.31 55.07, 36.71 41.38, 63.72 10.14 M16.45 71.55 C36.56 48.74, 54.58 30.27, 67.24 14.61 M17.54 70.83 C31.36 54.02, 46.68 35.5, 66.46 14.21 M20.59 74.11 C37.51 55.9, 52.49 35.94, 70.22 16.28 M20.14 72.34 C35.43 57.09, 49.5 40.54, 69.17 16.17 M24.55 77.17 C35.47 62.59, 45.78 46.9, 72.99 18.7 M22.92 75.82 C42.47 54.22, 60.67 31.12, 71.33 19.25 M24.78 79.08 C36.06 64.5, 48.19 52.97, 74.77 22.56 M24.7 79.33 C39.35 63.28, 53.12 46.57, 75.13 21.79 M29.1 79.84 C38.26 69.54, 49.38 55.54, 78.62 25.01 M27.67 80.78 C42.38 65.71, 56.55 51.49, 77.48 25.54 M29.71 83.72 C44.66 71.15, 57.39 55.84, 80.36 29.51 M31.57 84.99 C50.46 63.36, 68.86 40.85, 79 28.79 M32.76 88.29 C45.67 72.31, 59.51 58.35, 81.57 32.38 M35.25 86.06 C44.05 74.52, 55.8 64.19, 82.13 31.4 M37.97 92 C48.33 74.6, 58.87 63.31, 86.48 32.64 M37.45 89.44 C48.95 74.71, 61.13 60.69, 86.11 34 M40.17 91.21 C56.84 72.62, 76.95 51.12, 88.9 35.8 M40.45 92.31 C52.72 77.33, 65.63 63.29, 88.99 36.19 M42.36 94.79 C59.88 74.66, 74.57 57.02, 90.54 39.17 M42.12 94.6 C60.11 74.51, 79.83 53.29, 90.08 39.3 M45.19 97.17 C60.35 80.15, 75.52 64.63, 95.22 43.93 M45.65 97.45 C57.06 85.06, 68.93 70.81, 93.2 42.81 M46.66 101.88 C60.95 85.66, 72.82 71.1, 95.2 44.45 M48.18 101.19 C60.98 85.61, 74.63 70.07, 97.15 45.12 M51.64 102.65 C67.62 83.87, 83.95 64.82, 98.09 48.08 M50.54 103.76 C69.12 82.5, 86.66 62.73, 99.68 49.72 M52.87 105.94 C66.56 89.8, 79.68 75.11, 103.76 52.98 M53.3 105.72 C65.72 93.32, 77.98 77.78, 102.52 52.43" stroke="#be4bdb" stroke-width="0.5" fill="none"></path><path d="M52.03 -0.06 C65.29 13.43, 80.89 28.91, 101.04 52.56 M51.57 0.22 C68.45 17.58, 85.56 34.18, 102.99 53.92 M101.94 52.97 C83.81 72.07, 61.72 93.02, 53.49 106.71 M103.92 52.79 C89.17 65.4, 77.15 78.93, 52.97 105.03 M52.12 106.11 C39.64 93.39, 24.78 77.3, 0.86 54.7 M52.79 105.22 C37.88 91.5, 23.4 76.81, -0.24 52.68 M-1.91 52.06 C15.01 40.52, 28.04 24.37, 51.09 1.93 M0.01 52.13 C14.53 37.62, 30.78 21.74, 52.75 0.64" stroke="#000000" stroke-width="1" fill="none"></path></g><g transform="translate(239.04699318073676 234.5) rotate(0 46.5 23)"><text x="46.5" y="17" font-family="Virgil, Segoe UI Emoji" font-size="20px" fill="#000000" text-anchor="middle" style="white-space: pre;" direction="ltr">First</text><text x="46.5" y="40" font-family="Virgil, Segoe UI Emoji" font-size="20px" fill="#000000" text-anchor="middle" style="white-space: pre;" direction="ltr">Paint</text></g><g stroke-linecap="round" transform="translate(229.04699318073676 564.5) rotate(0 51.5 52.5)"><path d="M0 53 C0 53, 0 53, 0 53 M0 53 C0 53, 0 53, 0 53 M1.79 55.38 C16.64 40.88, 28.59 28.44, 48.06 6.39 M3.01 55.28 C12.59 43.79, 23.83 32.48, 46.05 5.3 M4.23 59.21 C20.39 45.49, 31.77 28.46, 56.02 1.19 M5.46 58.08 C19.41 45.15, 31.13 30.17, 55.04 1.62 M8.16 60.61 C19.87 51.11, 30.44 37.74, 56.35 4.48 M7.44 61.98 C20.41 48.38, 31.4 34.28, 57.65 4.34 M12.27 66.16 C24.28 51.32, 35.52 36.14, 59.28 6.9 M10.7 63.26 C30 40.95, 49.98 19.86, 59.23 8.93 M15.82 65.92 C33.17 44.81, 50.83 22.54, 64.29 11.51 M13.82 66.97 C24.81 53.34, 34.65 43.01, 63.19 10.43 M15.42 69.88 C35.55 45.88, 56.92 24.86, 65.44 13.24 M17.29 69.48 C33.21 52.45, 47.35 34.11, 65.79 13.98 M19.71 73.84 C34.37 55.76, 46.4 41.26, 67.39 15.59 M19.69 73.47 C31.98 59.39, 44.67 43.77, 68.62 17.62 M23.47 74.92 C43.66 54.76, 60.71 31.3, 71.47 21.21 M22.15 75.53 C34.75 62.55, 43.96 49.65, 71.98 20.01 M25.66 78.2 C42.11 60.28, 55.34 43.13, 73.79 23.48 M25.85 77.9 C38.92 63.61, 52.65 48.06, 73.46 22.01 M29.46 81.41 C39.02 69.88, 49.36 59, 75.25 25.1 M28.4 81.21 C38.33 68.58, 49.35 57.34, 77.34 26.44 M30.4 84.42 C42.89 70.63, 55.05 59.43, 81.59 26.8 M31.41 85.1 C49.33 63.03, 67.51 43.36, 79.06 28.87 M33 85.09 C49.64 68.55, 61.71 55.14, 83.52 32.8 M33.56 86.2 C51.66 66.77, 68.52 45.68, 82.7 30.14 M37.59 89.78 C52.39 75.03, 68.5 56.55, 84.75 35.49 M36.78 89.67 C48.23 77.47, 59.82 64, 85.51 35.18 M40.95 93.27 C58.46 70.91, 78.3 51.84, 87.99 38.08 M39.33 93.2 C52.02 79.56, 64.21 64.8, 87.23 36.72 M44.45 96.16 C59.91 76.85, 76.95 55.33, 92.48 38.85 M43.33 95.6 C59.11 75.71, 76.36 54.27, 90.07 39.63 M46.72 96.87 C56.09 84.79, 71.58 72.44, 95.24 42.02 M45.84 98.8 C57.11 83.96, 70.56 68.68, 93.35 42.94 M46.44 102.03 C62.42 83.59, 74.19 70.4, 96.57 46 M47.06 101.39 C60.35 86.56, 72.08 73.98, 97.43 46.11 M50.99 102.41 C62 89.66, 72.09 78.76, 98.08 50.05 M51.38 104.61 C63.33 90.63, 74.9 76.08, 99.13 48.81 M52.58 106.43 C71.23 87.97, 91.3 64.85, 102.72 50.94 M54.93 106.96 C70.72 86.34, 87.07 67.09, 102.13 51.71" stroke="#be4bdb" stroke-width="0.5" fill="none"></path><path d="M53.41 1.74 C61.94 13.46, 73.91 23.6, 102.93 54.35 M51.16 0.17 C72.61 20.53, 91.65 42.5, 102.84 53.83 M101.15 52.86 C92.98 64.02, 80.76 78.21, 51.59 105.53 M103.88 52.84 C91.91 64.15, 79.8 76.73, 52.35 105.81 M53.83 104.68 C40.02 89.97, 26.26 79.51, 1.77 52.7 M51.15 105.58 C37.76 90.18, 24.56 77.24, -0.92 52.47 M1.05 52.99 C10.96 39.31, 23.73 28.57, 52.61 -0.49 M-0.31 53.75 C14.43 39.92, 26.41 25.03, 52.99 -0.03" stroke="#000000" stroke-width="1" fill="none"></path></g><g transform="translate(234.04699318073676 594) rotate(0 46.5 23)"><text x="46.5" y="17" font-family="Virgil, Segoe UI Emoji" font-size="20px" fill="#000000" text-anchor="middle" style="white-space: pre;" direction="ltr">First</text><text x="46.5" y="40" font-family="Virgil, Segoe UI Emoji" font-size="20px" fill="#000000" text-anchor="middle" style="white-space: pre;" direction="ltr">Paint</text></g><g stroke-linecap="round" transform="translate(952.0469931807368 233.5) rotate(0 51.5 52.5)"><path d="M0 53 C0 53, 0 53, 0 53 M0 53 C0 53, 0 53, 0 53 M2.59 56.29 C17.37 37.4, 31.78 22.49, 47.28 6.47 M2.53 54.9 C11.91 44.27, 21.36 34.61, 46.91 5.03 M5.89 60.19 C25.58 36.54, 43.34 18.2, 54 3.83 M5.42 59.78 C22.67 38.35, 41.72 17.22, 54.62 3.21 M9.59 62.34 C23.65 47.25, 35.95 29.23, 56.92 6.89 M8.09 62.23 C20.47 47.49, 32.46 34.44, 56.62 4.82 M9.53 63.71 C26.29 44.65, 44.82 27.16, 59.87 8.88 M10.66 63.97 C25.46 45.9, 42.43 29.44, 59.67 7.88 M15.59 68.44 C24.19 53.16, 35.01 40.08, 63.27 11.33 M15.34 66.13 C26.52 53.74, 38.07 39.86, 63.96 11.53 M15.34 71.42 C29.37 53.25, 43.65 38.23, 64.33 14.59 M17.16 71.2 C27.82 58.9, 38.19 45.97, 65.45 14.03 M19.62 71.35 C36.27 54.63, 50.31 37.11, 68.02 17.6 M19.61 73.48 C37.99 50.56, 58.08 28.7, 67.9 16.93 M23.51 77.29 C43.54 51.12, 62.95 32.42, 71.9 19.76 M22.74 76.09 C35.11 60.18, 48.12 44.26, 71.82 20.27 M23.29 78.49 C41.04 63.45, 55.69 45.68, 75.19 23.44 M26.17 78.16 C41.62 61.21, 57.38 42.64, 74.62 21.61 M27.25 80.19 C44.43 61.41, 61.7 44.42, 75.63 23.84 M29.05 81.06 C42.65 63.98, 59.41 45.89, 77.57 25.22 M30.8 84.19 C47.19 66.1, 62.47 44.74, 80.43 28.75 M31.23 84.36 C41.08 72.13, 52.33 60.27, 79.79 28.25 M35.94 87.9 C45.23 72.24, 60.75 57.99, 81.21 31.18 M33.82 87.32 C44.42 74.32, 54.78 62.91, 83.41 30.79 M36.97 89.93 C54.83 71.64, 67.34 51.6, 84.96 33.1 M37 89.83 C56.3 68.01, 75.52 46.6, 85.49 34.04 M39.97 93.1 C50.54 77.77, 65.33 66.03, 86.92 35.3 M40.6 91.89 C51.79 78.09, 62.38 65.41, 89.07 37.48 M41.85 97.08 C52.87 83.58, 65.95 67.59, 90.93 40.69 M43.25 95.6 C54.14 82.45, 64.95 69.01, 90.6 40.72 M45.91 97.38 C62.49 81.08, 77.89 63.43, 93.62 44.36 M45.01 98.58 C61.95 80.86, 75.93 62.73, 94.19 42.81 M47.45 102.95 C67.37 82.66, 85.72 58.09, 96.74 44.9 M47.1 101.01 C60.26 88.78, 71.49 75.47, 97.11 46.08 M49.33 103.24 C66.49 85.14, 79.89 66.68, 100.1 50.2 M50.53 105 C68.75 82.86, 86.9 61.88, 98.71 49.33 M52.99 104.74 C66.15 92.01, 83.07 73.26, 100.43 53.26 M53.23 106.68 C68.13 90.01, 83.62 72.86, 102.49 51.98" stroke="#be4bdb" stroke-width="0.5" fill="none"></path><path d="M51.47 -1.03 C65.06 13.62, 76.97 26.29, 103.21 54.46 M52.72 -0.6 C70.85 19.99, 89.66 40.32, 102.07 53.9 M103.9 51.44 C81.96 72.45, 66.73 91.87, 50.98 106.11 M102.37 52.73 C82.92 73.13, 63.68 92.53, 52.35 105.17 M52.1 103.64 C34.27 88.29, 16.39 71.69, 1.9 53.95 M51.66 104.25 C36.15 88.08, 19.1 70.5, -1 52.36 M-1.46 54.05 C13.17 41.39, 22.34 30.87, 51.05 -0.01 M0.65 53.24 C13.58 39.34, 29.48 23.96, 52.09 -0.01" stroke="#000000" stroke-width="1" fill="none"></path></g><g transform="translate(957.0469931807368 274) rotate(0 46.5 11.5)"><text x="46.5" y="17" font-family="Virgil, Segoe UI Emoji" font-size="20px" fill="#000000" text-anchor="middle" style="white-space: pre;" direction="ltr">LCP</text></g><g stroke-linecap="round" transform="translate(422.04699318073676 562.5) rotate(0 51.5 52.5)"><path d="M0 53 C0 53, 0 53, 0 53 M0 53 C0 53, 0 53, 0 53 M3.69 57.41 C21.64 33.66, 38.99 17.34, 46.83 5.92 M2.92 56.21 C13.9 41.99, 25.47 27.73, 46.76 6.43 M3.47 58.62 C21.22 43.57, 35.87 25.8, 55.37 3.56 M6.35 58.28 C21.8 41.33, 37.56 22.76, 54.8 1.74 M7.43 60.31 C24.84 41.28, 42.34 24.02, 56.47 3.2 M9.23 61.18 C23.03 43.86, 40 25.52, 58.4 4.58 M10.98 64.31 C27.37 46.22, 42.65 24.86, 60.61 8.87 M11.41 64.48 C21.26 52.25, 32.52 40.39, 59.97 8.37 M16.12 68.02 C25.41 52.36, 40.93 38.11, 61.39 11.3 M14 67.44 C24.6 54.44, 34.96 43.03, 63.59 10.91 M17.15 70.05 C35.23 51.52, 47.96 31.22, 65.8 12.46 M17.18 69.95 C36.74 47.83, 56.22 26.12, 66.33 13.4 M20.15 73.22 C30.72 57.89, 45.51 46.15, 67.1 15.42 M20.78 72.02 C31.97 58.21, 42.56 45.53, 69.25 17.61 M22.03 77.2 C33.21 63.52, 46.45 47.35, 71.77 20.06 M23.43 75.72 C34.46 62.39, 45.43 48.78, 71.43 20.08 M25.43 78.25 C42.43 61.48, 58.26 43.34, 74.46 23.73 M24.54 79.46 C41.9 61.25, 56.29 42.64, 75.03 22.17 M27.63 83.08 C47.55 62.78, 65.9 38.21, 76.93 25.02 M27.28 81.13 C40.44 68.9, 51.67 55.59, 77.29 26.2 M29.51 83.36 C46.88 65.02, 60.49 46.31, 80.94 29.56 M30.71 85.12 C49.18 62.69, 67.58 41.43, 79.54 28.69 M33.17 84.86 C46.51 71.91, 63.62 52.94, 81.26 32.62 M33.41 86.8 C48.51 69.89, 64.21 52.5, 83.32 31.35 M37.53 90.95 C53.33 72.31, 69.05 54.65, 86.59 32.9 M36.2 90.43 C47.93 76.89, 58.07 63.93, 85.34 34.28 M39.86 91.68 C49.84 77.01, 65.77 65.33, 86.4 36.31 M39.83 93.67 C56.77 74.28, 71.76 54.38, 87.48 36.17 M40.85 94.33 C57.48 81.09, 69.24 65.48, 89.38 41.37 M43.01 94.55 C54.55 81.02, 66.35 68.31, 91.26 41.09 M46.12 96.52 C55.91 84.16, 68.78 72.11, 93.53 43.18 M46.13 97.95 C62.76 77.92, 80.07 58.56, 93.1 42.85 M49.83 101.72 C66.57 82.03, 82.19 62.3, 96.56 46.77 M47.95 101.51 C62.3 85.05, 76.96 68.05, 96.76 45.83 M52.32 104.32 C65.22 86.32, 79.68 71.29, 98.76 46.96 M51.24 104.17 C62.23 90.76, 73.09 77.56, 99.33 49.12 M53.02 108.23 C68.9 89.21, 86.14 71.11, 103.96 50.06 M54.92 107.1 C63.48 94.51, 72.88 83.13, 102.27 51.76" stroke="#be4bdb" stroke-width="0.5" fill="none"></path><path d="M53.19 0.71 C66.69 17.59, 79.51 31.53, 102.31 54.86 M51.69 0.6 C64.23 12.88, 76.66 26.84, 102.01 52.8 M101.11 52.45 C83.75 70.78, 68.4 89.98, 51.91 105.48 M102.24 52.72 C86.4 68.73, 72.44 85.79, 51.7 104.47 M53.15 106.56 C38.34 92.04, 25.74 79.86, 0.28 53.31 M52.9 104.26 C39.73 93.02, 26.92 80.08, 0.97 53.51 M-1.46 54.17 C13.35 36.95, 28.38 22.9, 50.33 0.94 M0.36 53.95 C11.57 42.37, 22.53 30.19, 51.45 0.38" stroke="#000000" stroke-width="1" fill="none"></path></g><g transform="translate(427.04699318073676 603) rotate(0 46.5 11.5)"><text x="46.5" y="17" font-family="Virgil, Segoe UI Emoji" font-size="20px" fill="#000000" text-anchor="middle" style="white-space: pre;" direction="ltr">LCP</text></g></svg>